# xmcd
#
# Track frame offsets:
#	150
#	25335
#	45393
#	68130
#	91285
#	110983
#	126158
#	143828
#	159955
#	182862
#	197645
#	217202
#	238703
#	259538
#
# Disc length: 3763 seconds
#
# Revision: 1
# Processed by: cddbd v1.5.2PL0 Copyright (c) Steve Scherf et al.
# Submitted via: audiograbber 1.83.01
#
DISCID=cb0eb10e
DTITLE=Jim Hunter - Sparks In Flight (live)
DYEAR=2003
DGENRE=Blues
TTITLE0=When The Geese Fly Over
TTITLE1=Crazy Days
TTITLE2=Waste The Paint
TTITLE3=Joanna
TTITLE4=Bitter Sweet
TTITLE5=Raeberry Street (w/ Jim Michie)
TTITLE6=When You Leave
TTITLE7=Good Bad Woman (& Thunderbird Wine)
TTITLE8=Don't Want You To See Me This Way
TTITLE9=Big Man With The Beard
TTITLE10=Love On The Line
TTITLE11=Irish Girl/Kazahkstan (w/ Ivan Drever)
TTITLE12=Midnight Train
TTITLE13=Cold Winters Night
EXTD=
EXTT0=
EXTT1=
EXTT2=
EXTT3=
EXTT4=
EXTT5=
EXTT6=
EXTT7=
EXTT8=
EXTT9=
EXTT10=
EXTT11=
EXTT12=
EXTT13=
PLAYORDER=
